Coordinates
version=1
nRows=14
nColumns=28
inDegrees=yes

Units are S.I. units (second, meters, Newtons, ...)
Angles are in degrees.

endheader
time	pelvis_tilt	pelvis_list	pelvis_rotation	pelvis_tx	pelvis_ty	pelvis_tz	hip_flexion_r	hip_adduction_r	hip_rotation_r	knee_angle_r	ankle_angle_r	subtalar_angle_r	mtp_angle_r	hip_flexion_l	hip_adduction_l	hip_rotation_l	knee_angle_l	socket_flexion	socket_adduction	socket_rotation	socket_tx	socket_ty	socket_tz	foot_flex	lumbar_extension	lumbar_bending	lumbar_rotation
      0.63333333	     -0.56642003	     -1.06261186	      8.41481458	     -0.00671569	      0.98976612	      0.26406721	     25.06036399	      0.39862264	     -9.38555076	     -6.36776894	     10.79875693	    -20.16818818	     -9.59941632	    -25.66522179	     -4.69803864	     16.77950349	      8.01719606	     10.78300163	      0.00000000	      0.00000000	      0.00000000	      0.00362815	      0.00000000	      8.14014453	    -10.52636219	      1.19659799	     -4.91154023
      0.63750000	     -0.45120990	     -1.18142668	      8.36007304	     -0.00648840	      0.98978814	      0.26402479	     25.04667570	      0.50383941	     -9.81421688	     -6.55358264	     10.71595655	    -19.76073540	     -8.20641407	    -25.85046065	     -4.79920063	     16.57525288	      8.10421676	     10.79313948	      0.00000000	      0.00000000	      0.00000000	      0.00355438	      0.00000000	      8.12399719	    -10.61539447	      1.34864198	     -4.76820768
      0.64166667	     -0.54782215	     -1.20527363	      8.36871009	     -0.00014588	      0.98870682	      0.26432018	     25.50515128	      0.52796322	     -9.61453490	     -7.67648318	     10.31964266	    -19.96742468	     -8.12340414	    -25.91249946	     -4.81340685	     16.56870183	      7.74444797	     10.82026034	      0.00000000	      0.00000000	      0.00000000	      0.00342596	      0.00000000	      8.04884101	    -10.44692029	      1.45602168	     -5.02562258
      0.64583333	     -0.28200811	     -1.45960127	      8.25572027	      0.00651277	      0.98806750	      0.26472658	     25.38573273	      0.93751150	     -9.22569295	     -8.33001430	      9.03200371	    -20.84276724	     -5.71160858	    -26.43977281	     -5.04730322	     16.18965355	      7.49593428	     10.85942418	      0.00000000	      0.00000000	      0.00000000	      0.00330815	      0.00000000	      7.96227861	    -10.63310504	      1.83886617	     -4.67017751
      0.65000000	     -0.36837745	     -1.53895436	      8.30096751	      0.01296258	      0.98708388	      0.26495851	     25.81384206	      0.99987303	     -9.14196405	     -9.44142317	      8.59870993	    -20.93358608	     -5.60350291	    -26.46348514	     -5.12006712	     16.19192677	      7.05111323	     10.86960477	      0.00000000	      0.00000000	      0.00000000	      0.00307208	      0.00000000	      7.80716138	    -10.45030752	      2.01382877	     -4.87915454
      0.65416667	     -0.37990295	     -1.73644664	      8.15153702	      0.01963379	      0.98608198	      0.26537734	     26.18967824	      1.25765703	     -9.03465670	    -10.57649371	      8.26326411	    -20.70929041	     -5.12085618	    -26.62582304	     -5.22276754	     15.85624292	      6.64306288	     10.88866647	      0.00000000	      0.00000000	      0.00000000	      0.00279937	      0.00000000	      7.71772945	    -10.31001600	      2.30855860	     -4.69687659
      0.65833333	     -0.26159834	     -1.90733529	      8.17090501	      0.02607790	      0.98547857	      0.26566606	     26.30912921	      1.47478707	     -8.84414383	    -11.50100135	      7.86746170	    -20.68551618	     -5.05548066	    -26.82509576	     -5.39581773	     15.78592799	      6.12581478	     10.89010639	      0.00000000	      0.00000000	      0.00000000	      0.00254029	      0.00000000	      7.52704451	    -10.37614038	      2.60189758	     -4.64975509
      0.66250000	     -0.12284558	     -2.09241990	      8.04099319	      0.03276811	      0.98483442	      0.26605925	     26.50661714	      1.72431977	     -8.85376335	    -12.62695899	      7.35513405	    -20.73692616	     -4.85809384	    -27.08649705	     -5.48573500	     15.38441308	      5.59485466	     10.88632036	      0.00000000	      0.00000000	      0.00000000	      0.00229126	      0.00000000	      7.36087713	    -10.40644360	      2.90307556	     -4.56160112
      0.66666667	     -0.03213990	     -2.23468289	      7.81245120	      0.03952017	      0.98409512	      0.26657596	     26.75160471	      1.94416236	     -8.75479009	    -13.70910633	      5.94922376	    -21.10386308	     -0.39182321	    -27.31620225	     -5.48993392	     15.00137190	      5.07643468	     10.89974327	      0.00000000	      0.00000000	      0.00000000	      0.00209443	      0.00000000	      7.14847414	    -10.40896492	      3.08690149	     -3.89510505
      0.67083333	      0.09233577	     -2.44525216	      7.77547969	      0.04615210	      0.98358352	      0.26687697	     26.89535360	      2.18811011	     -8.73786740	    -14.73322950	      5.52329109	    -21.12585927	     -0.28419321	    -27.47243664	     -5.64423460	     14.76407679	      4.44095601	     10.89853004	      0.00000000	      0.00000000	      0.00000000	      0.00171950	      0.00000000	      6.90097757	    -10.44219268	      3.44229249	     -4.03829500
      0.67500000	      0.19056660	     -2.67825810	      7.65966355	      0.05290513	      0.98303925	      0.26724631	     27.06708967	      2.47525189	     -8.68111780	    -15.76683778	      5.08810445	    -21.09425663	      0.16566232	    -27.61116124	     -5.77534160	     14.43844273	      3.79282106	     10.90468912	      0.00000000	      0.00000000	      0.00000000	      0.00133511	      0.00000000	      6.61444368	    -10.42599804	      3.79549530	     -3.96384645
      0.67916667	      0.30965963	     -2.86710980	      7.54977596	      0.05958536	      0.98262034	      0.26759799	     27.21920681	      2.70582749	     -8.63910477	    -16.82587530	      4.68554946	    -21.06875467	      0.50343513	    -27.71390630	     -5.85306930	     14.10740546	      3.04465503	     10.90581114	      0.00000000	      0.00000000	      0.00000000	      0.00098271	      0.00000000	      6.34076530	    -10.46279572	      4.11770362	     -3.86770630
      0.68333333	      0.45210756	     -3.06447625	      7.46633989	      0.06623861	      0.98235483	      0.26800967	     27.29139755	      2.96084259	     -8.56424031	    -17.78188095	      4.38523262	    -21.03917879	      0.62187800	    -27.78509203	     -5.96351273	     13.88430547	      2.19854236	     10.86456692	      0.00000000	      0.00000000	      0.00000000	      0.00062238	      0.00000000	      5.96875524	    -10.50831057	      4.41757489	     -3.82662116
      0.68750000	      0.58446921	     -3.25681893	      7.30386534	      0.07315853	      0.98196985	      0.26833291	     27.42834207	      3.15047274	     -8.75324075	    -18.85401395	      3.42135462	    -21.04846233	      4.21752852	    -27.89231840	     -6.00841641	     13.49313452	      1.39792317	     10.85598192	      0.00000000	      0.00000000	      0.00000000	      0.00027030	      0.00000000	      5.64149899	    -10.52529113	      4.70917271	     -3.56785251
